<svg width="21" height="18" viewBox="0 0 21 18" fill="none" xmlns="http://www.w3.org/2000/svg">
<path d="M16.2929 0.792889C16.6834 0.402367 17.3166 0.402371 17.7071 0.792897L19.852 2.93785C20.4378 3.52363 20.4378 4.47337 19.852 5.05916L17.7071 7.20412C17.3166 7.59465 16.6834 7.59466 16.2929 7.20414C15.9024 6.81362 15.9024 6.18045 16.2929 5.78992L17.0866 4.99615H14.7648C13.711 4.99615 12.7345 5.54905 12.1923 6.45267L10.6639 8.99994L12.1923 11.5472C12.7345 12.4508 13.711 13.0037 14.7648 13.0037H17.0867L16.2929 12.2099C15.9024 11.8194 15.9024 11.1862 16.2929 10.7957C16.6834 10.4052 17.3166 10.4052 17.7071 10.7957L19.852 12.9406C20.4378 13.5264 20.4378 14.4762 19.852 15.062L17.7071 17.2069C17.3166 17.5974 16.6834 17.5975 16.2929 17.2069C15.9024 16.8164 15.9024 16.1832 16.2929 15.7927L17.0819 15.0037H14.7648C13.0084 15.0037 11.3809 14.0822 10.4773 12.5762L9.49773 10.9436L8.5227 12.5686C7.61909 14.0747 5.99155 14.9962 4.23524 14.9962H1.5C0.947715 14.9962 0.5 14.5484 0.5 13.9962C0.5 13.4439 0.947715 12.9962 1.5 12.9962H4.23524C5.28903 12.9962 6.26555 12.4433 6.80772 11.5396L8.33154 8.99994L6.80772 6.46024C6.26555 5.55662 5.28903 5.00372 4.23524 5.00372H1.5C0.947715 5.00372 0.5 4.55601 0.5 4.00372C0.5 3.45144 0.947715 3.00372 1.5 3.00372H4.23524C5.99155 3.00372 7.61909 3.92522 8.5227 5.43124L9.49773 7.05629L10.4773 5.42368C11.3809 3.91765 13.0084 2.99615 14.7648 2.99615H17.0819L16.2929 2.2071C15.9024 1.81658 15.9024 1.18341 16.2929 0.792889Z" fill="black"/>
</svg>
