<svg width="17" height="21" viewBox="0 0 17 21" fill="none" xmlns="http://www.w3.org/2000/svg">
<path fill-rule="evenodd" clip-rule="evenodd" d="M2.59375 7.875C2.4197 7.875 2.25278 7.94414 2.12971 8.06721C2.00664 8.19028 1.9375 8.3572 1.9375 8.53125V19.0312C1.9375 19.2053 2.00664 19.3722 2.12971 19.4953C2.25278 19.6184 2.4197 19.6875 2.59375 19.6875H14.4062C14.5803 19.6875 14.7472 19.6184 14.8703 19.4953C14.9934 19.3722 15.0625 19.2053 15.0625 19.0312V8.53125C15.0625 8.3572 14.9934 8.19028 14.8703 8.06721C14.7472 7.94414 14.5803 7.875 14.4062 7.875H11.7812C11.6072 7.875 11.4403 7.80586 11.3172 7.68279C11.1941 7.55972 11.125 7.3928 11.125 7.21875C11.125 7.0447 11.1941 6.87778 11.3172 6.75471C11.4403 6.63164 11.6072 6.5625 11.7812 6.5625H14.4062C14.9284 6.5625 15.4292 6.76992 15.7984 7.13913C16.1676 7.50835 16.375 8.00911 16.375 8.53125V19.0312C16.375 19.5534 16.1676 20.0542 15.7984 20.4234C15.4292 20.7926 14.9284 21 14.4062 21H2.59375C2.07161 21 1.57085 20.7926 1.20163 20.4234C0.832421 20.0542 0.625 19.5534 0.625 19.0312V8.53125C0.625 8.00911 0.832421 7.50835 1.20163 7.13913C1.57085 6.76992 2.07161 6.5625 2.59375 6.5625H5.21875C5.3928 6.5625 5.55972 6.63164 5.68279 6.75471C5.80586 6.87778 5.875 7.0447 5.875 7.21875C5.875 7.3928 5.80586 7.55972 5.68279 7.68279C5.55972 7.80586 5.3928 7.875 5.21875 7.875H2.59375Z" fill="white"/>
<path fill-rule="evenodd" clip-rule="evenodd" d="M8.03547 0.191822C8.09643 0.130707 8.16885 0.0822198 8.24858 0.0491363C8.32831 0.0160529 8.41378 -0.000976563 8.5001 -0.000976562C8.58642 -0.000976563 8.67189 0.0160529 8.75162 0.0491363C8.83134 0.0822198 8.90376 0.130707 8.96472 0.191822L12.9022 4.12932C13.0254 4.25255 13.0947 4.41968 13.0947 4.59395C13.0947 4.76821 13.0254 4.93535 12.9022 5.05857C12.779 5.1818 12.6119 5.25103 12.4376 5.25103C12.2633 5.25103 12.0962 5.1818 11.973 5.05857L9.15635 2.24063V13.7814C9.15635 13.9555 9.08721 14.1224 8.96414 14.2455C8.84107 14.3686 8.67415 14.4377 8.5001 14.4377C8.32605 14.4377 8.15913 14.3686 8.03606 14.2455C7.91299 14.1224 7.84385 13.9555 7.84385 13.7814V2.24063L5.02722 5.05857C4.96621 5.11959 4.89377 5.16799 4.81405 5.20101C4.73433 5.23403 4.64889 5.25103 4.5626 5.25103C4.38833 5.25103 4.2212 5.1818 4.09797 5.05857C4.03696 4.99756 3.98856 4.92512 3.95553 4.8454C3.92251 4.76568 3.90552 4.68024 3.90552 4.59395C3.90552 4.41968 3.97475 4.25255 4.09797 4.12932L8.03547 0.191822Z" fill="white"/>
</svg>
